<svg version="1.1" id="Layer_1" xmlns="http://www.w3.org/2000/svg" xmlns:xlink="http://www.w3.org/1999/xlink" x="0px" y="0px"
	 width="100%" viewBox="0 0 179 184" enable-background="new 0 0 179 184" xml:space="preserve">
<path fill="#000000" opacity="1.000000" stroke="none" 
	d="
M86.000000,185.000000 
	C57.333336,185.000000 29.166670,185.000000 1.000004,185.000000 
	C1.000003,123.666672 1.000003,62.333344 1.000001,1.000012 
	C60.666656,1.000008 120.333313,1.000008 179.999969,1.000004 
	C179.999985,62.333324 179.999985,123.666649 180.000000,184.999985 
	C148.833328,185.000000 117.666664,185.000000 86.000000,185.000000 
M139.099335,137.540817 
	C139.394562,137.732849 139.689774,137.924881 140.122009,138.553818 
	C140.300125,138.830673 140.552902,138.986328 141.065216,139.527130 
	C141.367676,139.695038 141.670151,139.862961 142.000000,140.000000 
	C142.000000,140.000000 141.970840,140.029236 142.123367,140.532196 
	C142.411026,140.718491 142.698669,140.904785 143.057831,141.502853 
	C143.057831,141.502853 143.190399,141.899231 143.097610,142.466248 
	C143.388199,142.699173 143.678772,142.932114 143.996368,144.003723 
	C143.996368,145.970657 143.996368,147.937592 143.996368,149.904541 
	C144.612610,149.967133 145.228851,150.029739 145.845093,150.092331 
	C146.588898,147.436081 147.332687,144.779831 148.719788,141.735016 
	C148.493622,140.155563 148.267456,138.576111 148.033936,136.972092 
	C148.033936,136.972092 148.009705,136.963669 147.887161,136.448349 
	C147.602905,136.249161 147.318649,136.049973 146.973770,135.480591 
	C146.973770,135.480591 146.843857,135.128677 146.927429,134.563782 
	C146.632812,134.353928 146.338211,134.144058 146.004684,133.988358 
	C146.004684,133.988358 146.067551,133.966095 145.931290,133.447632 
	C145.632080,133.275879 145.332855,133.104126 145.044693,132.994125 
	C145.044693,132.994125 145.057220,132.930756 144.846390,132.309433 
	C143.907516,131.854324 142.968628,131.399200 142.005188,130.997971 
	C142.005188,130.997971 142.060745,130.977493 141.896332,130.484726 
	C141.606262,130.318634 141.316208,130.152542 141.006943,129.990662 
	C141.006943,129.990662 141.012085,129.971161 140.862396,129.465271 
	C140.549576,129.390167 140.236755,129.315063 139.505081,129.090530 
	C139.505081,129.090530 139.070786,128.994919 138.881607,128.491486 
	C138.565063,128.414413 138.248505,128.337341 137.496185,128.109604 
	C137.496185,128.109604 137.047485,128.003464 136.877426,127.499931 
	C136.565826,127.419800 136.254227,127.339676 135.517670,127.108299 
	C135.517670,127.108299 135.075623,127.018517 134.747040,126.349762 
	C131.465012,125.339378 128.182999,124.329002 124.294876,123.161812 
	C123.878426,123.134285 123.461967,123.106758 122.620811,122.398048 
	C118.175446,121.576950 113.730080,120.755859 109.284714,119.934769 
	C108.968796,120.462166 108.652885,120.989555 108.336975,121.516953 
	C110.061256,123.651428 111.374313,126.850792 113.592133,127.707214 
	C118.828430,129.729263 124.495377,130.636093 129.991989,132.008331 
	C129.991989,132.008331 130.006393,132.012146 130.260605,132.656281 
	C131.553375,133.017975 132.846146,133.379684 134.635345,134.012512 
	C135.079971,134.345169 135.524612,134.677811 136.135635,135.517715 
	C136.452301,135.593506 136.768951,135.669296 137.505783,135.900604 
	C137.505783,135.900604 137.940872,136.007492 138.101028,136.511337 
	C138.394226,136.686829 138.687424,136.862305 139.002609,136.999344 
	C139.002609,136.999344 138.962479,137.017960 139.099335,137.540817 
M51.930225,142.457153 
	C51.625469,142.271408 51.320713,142.085663 51.020180,141.980164 
	C51.020180,141.980164 51.100368,141.975021 51.051800,141.235153 
	C51.326794,139.923737 51.601791,138.612335 51.876789,137.300919 
	C48.584354,139.234375 45.404217,141.031631 47.979176,145.011658 
	C47.979176,145.011658 47.914890,145.030350 47.982922,145.687317 
	C48.638714,146.482849 49.294510,147.278366 49.990372,148.008759 
	C49.990372,148.008759 49.925930,148.049942 50.135735,148.651611 
	C51.141220,149.359787 52.146702,150.067963 53.505867,150.924210 
	C53.505867,150.924210 53.883259,150.991974 54.100212,151.529724 
	C54.445889,151.615891 54.791569,151.702042 55.495617,151.918045 
	C55.495617,151.918045 55.872440,151.975403 56.214794,152.626007 
	C57.813129,153.087143 59.411465,153.548294 61.008289,153.991943 
	C61.008289,153.991943 60.990810,153.990463 61.139999,154.506683 
	C61.458813,154.579590 61.777626,154.652496 62.674435,154.865067 
	C63.070259,154.884979 63.466087,154.904907 64.257332,155.584320 
	C65.509460,155.725281 66.761589,155.866241 68.010666,155.988541 
	C68.010666,155.988541 67.991936,155.985825 68.382271,156.700821 
	C79.880684,158.641724 91.436752,160.247360 103.025970,157.870071 
	C108.815659,156.682434 114.433800,154.658524 120.695580,152.969559 
	C121.068939,152.916016 121.442299,152.862457 122.388832,152.906601 
	C122.610222,152.615341 122.831619,152.324081 122.995262,152.013580 
	C122.995262,152.013580 123.040741,152.054733 123.740997,152.003433 
	C125.445862,150.665359 127.150719,149.327301 129.152863,147.339432 
	C129.380844,145.698425 129.608841,144.057419 129.836823,142.416412 
	C128.547333,143.316330 127.343857,144.389877 125.950523,145.080185 
	C122.999290,146.542358 119.949005,147.804611 116.138199,149.036911 
	C109.379593,150.041199 102.629242,151.795685 95.860397,151.870255 
	C86.216446,151.976471 76.558914,150.850113 66.504852,150.118210 
	C66.504852,150.118210 66.089691,150.034836 65.776222,149.385437 
	C64.842857,149.328262 63.909489,149.271103 62.548515,149.072174 
	C62.548515,149.072174 62.101078,149.019913 61.805225,148.433960 
	C61.181618,148.358582 60.558014,148.283203 59.536385,148.065094 
	C59.536385,148.065094 59.120224,147.990234 58.803001,147.373428 
	C57.539806,146.895676 56.276611,146.417923 55.000294,146.000732 
	C55.000294,146.000732 55.062057,145.995392 54.916050,145.473206 
	C54.615097,145.294846 54.314148,145.116470 54.002365,144.998260 
	C54.002365,144.998260 54.062210,144.985870 53.922867,144.460480 
	C53.620411,144.283279 53.317951,144.106094 53.005348,143.992554 
	C53.005348,143.992554 53.069511,143.986374 52.927879,143.456772 
	C52.622971,143.277237 52.318062,143.097702 52.011440,142.988144 
	C52.011440,142.988144 52.081425,142.987015 51.930225,142.457153 
M79.999672,112.997795 
	C79.999672,112.997795 80.012611,113.018127 79.380898,113.220856 
	C78.572807,114.475166 77.764717,115.729469 77.004608,117.002274 
	C77.004608,117.002274 76.994019,116.951958 76.469070,117.088623 
	C76.292610,117.390671 76.116142,117.692719 75.995880,118.006042 
	C75.995880,118.006042 75.978500,117.951416 75.312805,118.270676 
	C74.846642,119.303864 74.374580,120.334450 73.915245,121.370659 
	C69.921471,130.380035 72.070953,139.660355 79.317833,144.700699 
	C79.317833,144.700699 79.532036,144.736313 79.958282,145.306244 
	C86.471268,149.004868 93.289368,149.492874 99.264084,144.944901 
	C105.693405,140.050873 108.521042,133.382721 106.047646,124.954147 
	C103.492638,116.247482 97.118477,110.580750 90.953445,104.684006 
	C90.479385,104.230568 89.073204,103.979500 88.709358,104.308327 
	C86.357254,106.434029 84.174431,108.747017 81.490768,111.177467 
	C81.208069,111.374176 81.053032,111.644180 80.524223,112.134758 
	C80.357079,112.425545 80.189934,112.716331 79.999672,112.997795 
M86.057587,59.860603 
	C87.656631,60.206451 89.875221,61.364525 90.719345,60.720654 
	C92.243248,59.558273 94.048996,57.089531 93.736038,55.581665 
	C93.247971,53.230129 91.089890,51.225208 89.639465,49.073414 
	C88.402756,50.362164 87.166046,51.650913 85.332214,53.259705 
	C85.527847,55.198124 85.723473,57.136547 86.057587,59.860603 
M85.905815,75.919350 
	C85.905815,75.919350 85.895119,76.018906 85.266632,76.306740 
	C80.272194,83.984085 81.036842,88.306107 88.760475,91.928604 
	C90.460251,91.275513 92.160027,90.622414 94.126549,89.394073 
	C97.548134,85.520416 96.474358,81.765213 93.755844,77.366447 
	C92.018410,74.939445 90.808075,70.999489 86.412422,75.106339 
	C86.133942,75.292587 85.996811,75.553268 85.905815,75.919350 
M175.004959,144.491348 
	C174.763336,138.984116 172.210297,134.934280 167.225418,131.686218 
	C167.131317,133.149887 166.819794,134.057205 167.066895,134.771164 
	C169.153183,140.798874 166.523819,145.973633 162.214081,148.975143 
	C155.349060,153.756302 147.881927,158.324203 139.987305,160.851715 
	C117.685883,167.991592 94.703880,169.620316 71.338036,167.212402 
	C58.255051,165.864182 45.332390,163.953506 33.199631,158.916473 
	C23.740189,154.989273 14.170051,150.513504 11.455842,139.011292 
	C10.965236,136.932236 11.182034,134.686249 11.071162,132.495941 
	C4.211889,134.134476 1.923613,145.889038 6.471842,152.907211 
	C12.249235,161.822037 21.110056,166.594757 30.583862,169.754852 
	C40.890434,173.192734 51.572006,175.789429 62.281792,177.648438 
	C71.312317,179.215958 80.629158,179.869583 89.797592,179.706772 
	C99.597961,179.532730 109.384979,178.034256 119.156097,176.922974 
	C132.881546,175.361923 146.164963,171.994949 158.237869,165.148788 
	C166.105560,160.687271 173.128372,155.075089 175.004959,144.491348 
M90.360008,36.918034 
	C95.465759,33.771076 91.672821,31.634436 89.632317,29.179947 
	C85.282967,33.486546 85.303307,34.991093 90.360008,36.918034 
z"/>
<path fill="#2299E4" opacity="1.000000" stroke="none" 
	d="
M175.001831,144.912781 
	C173.128372,155.075089 166.105560,160.687271 158.237869,165.148788 
	C146.164963,171.994949 132.881546,175.361923 119.156097,176.922974 
	C109.384979,178.034256 99.597961,179.532730 89.797592,179.706772 
	C80.629158,179.869583 71.312317,179.215958 62.281792,177.648438 
	C51.572006,175.789429 40.890434,173.192734 30.583862,169.754852 
	C21.110056,166.594757 12.249235,161.822037 6.471842,152.907211 
	C1.923613,145.889038 4.211889,134.134476 11.071162,132.495941 
	C11.182034,134.686249 10.965236,136.932236 11.455842,139.011292 
	C14.170051,150.513504 23.740189,154.989273 33.199631,158.916473 
	C45.332390,163.953506 58.255051,165.864182 71.338036,167.212402 
	C94.703880,169.620316 117.685883,167.991592 139.987305,160.851715 
	C147.881927,158.324203 155.349060,153.756302 162.214081,148.975143 
	C166.523819,145.973633 169.153183,140.798874 167.066895,134.771164 
	C166.819794,134.057205 167.131317,133.149887 167.225418,131.686218 
	C172.210297,134.934280 174.763336,138.984116 175.001831,144.912781 
z"/>
<path fill="#17ABF5" opacity="1.000000" stroke="none" 
	d="
M81.025665,111.987495 
	C81.053032,111.644180 81.208069,111.374176 82.070541,111.016373 
	C85.157104,109.681038 87.663895,108.506805 90.740730,107.065552 
	C93.384560,109.807930 96.644318,112.694946 99.296890,116.060524 
	C102.953598,120.700188 105.572327,125.959122 104.832176,132.129135 
	C104.667892,133.498703 103.283516,134.721909 102.460915,136.012497 
	C100.429115,143.669235 97.248398,146.424301 88.821419,145.988312 
	C85.711693,145.827408 82.627739,145.168228 79.532036,144.736313 
	C79.532036,144.736313 79.317833,144.700699 79.382187,144.238663 
	C79.003365,142.755600 78.826927,141.436661 78.073532,140.762115 
	C73.342567,136.526276 73.633705,131.049286 74.233009,125.567505 
	C74.514145,122.995941 75.378471,120.488121 75.978500,117.951416 
	C75.978500,117.951416 75.995880,118.006042 76.190903,117.878983 
	C76.588623,117.485268 76.791321,117.218613 76.994019,116.951950 
	C76.994019,116.951958 77.004608,117.002274 77.322014,116.927147 
	C78.430481,115.574059 79.221542,114.296089 80.012611,113.018127 
	C80.012611,113.018127 79.999672,112.997795 80.233459,112.893486 
	C80.744812,112.585640 80.930946,112.318413 81.025665,111.987495 
z"/>
<path fill="#1A9CEC" opacity="1.000000" stroke="none" 
	d="
M66.089691,150.034836 
	C66.089691,150.034836 66.504852,150.118210 66.912186,150.496109 
	C70.190720,151.410431 73.114586,151.753052 75.924049,152.516617 
	C88.519638,155.939865 100.895264,153.140350 113.292007,151.272583 
	C114.585091,151.077774 115.727196,149.880829 116.939346,149.148834 
	C119.949005,147.804611 122.999290,146.542358 125.950523,145.080185 
	C127.343857,144.389877 128.547333,143.316330 129.836823,142.416412 
	C129.608841,144.057419 129.380844,145.698425 128.638245,147.682281 
	C126.429329,149.368332 124.735031,150.711533 123.040741,152.054733 
	C123.040741,152.054733 122.995262,152.013580 122.788116,152.098175 
	C122.281288,152.337006 122.026184,152.545715 121.815659,152.808899 
	C121.442299,152.862457 121.068939,152.916016 120.122803,152.839233 
	C116.024963,153.536224 112.538712,154.654663 108.966835,155.131012 
	C101.263374,156.158325 93.529434,157.310120 85.782082,157.540573 
	C79.872681,157.716370 73.923447,156.553284 67.991936,155.985825 
	C67.991936,155.985825 68.010666,155.988541 67.908157,155.690948 
	C66.491074,155.237167 65.176491,155.080994 63.861912,154.924820 
	C63.466087,154.904907 63.070259,154.884979 62.233738,154.625854 
	C61.563042,154.178772 61.295631,154.046722 60.990810,153.990463 
	C60.990810,153.990463 61.008289,153.991943 60.871876,153.663437 
	C59.114452,152.881760 57.493446,152.428589 55.872437,151.975403 
	C55.872440,151.975403 55.495617,151.918045 55.139389,151.671753 
	C54.483196,151.280960 54.183228,151.136459 53.883263,150.991974 
	C53.883259,150.991974 53.505867,150.924210 53.257282,150.514313 
	C51.981110,149.419601 50.953518,148.734772 49.925926,148.049942 
	C49.925930,148.049942 49.990372,148.008759 49.958755,147.700867 
	C49.256393,146.605438 48.585640,145.817902 47.914890,145.030350 
	C47.914890,145.030350 47.979176,145.011658 47.996120,144.717316 
	C49.042168,143.606995 50.071270,142.791016 51.100372,141.975021 
	C51.100368,141.975021 51.020180,141.980164 51.146275,142.166016 
	C51.542053,142.563568 51.811741,142.775284 52.081429,142.987015 
	C52.081425,142.987015 52.011440,142.988144 52.140171,143.175171 
	C52.535770,143.570251 52.802643,143.778320 53.069511,143.986374 
	C53.069511,143.986374 53.005348,143.992554 53.131203,144.185394 
	C53.525440,144.580780 53.793827,144.783325 54.062210,144.985870 
	C54.062210,144.985870 54.002365,144.998260 54.132637,145.189789 
	C54.529289,145.585999 54.795673,145.790695 55.062057,145.995392 
	C55.062057,145.995392 55.000294,146.000732 55.132561,146.301208 
	C56.549957,147.064545 57.835091,147.527390 59.120224,147.990234 
	C59.120224,147.990234 59.536385,148.065094 59.971169,148.317352 
	C60.970997,148.719711 61.536037,148.869812 62.101074,149.019913 
	C62.101078,149.019913 62.548515,149.072174 63.038551,149.321381 
	C64.382286,149.725327 65.235992,149.880081 66.089691,150.034836 
z"/>
<path fill="#1EA4F0" opacity="1.000000" stroke="none" 
	d="
M140.880310,139.020782 
	C140.552902,138.986328 140.300125,138.830673 139.935440,138.107635 
	C139.486740,137.446960 139.224609,137.232452 138.962479,137.017960 
	C138.962479,137.017960 139.002609,136.999344 138.871704,136.797729 
	C138.474152,136.399902 138.207504,136.203690 137.940872,136.007492 
	C137.940872,136.007492 137.505783,135.900604 137.147415,135.646423 
	C136.557373,135.175629 136.284103,135.048370 135.969238,135.010468 
	C135.524612,134.677811 135.079971,134.345169 134.217865,133.580353 
	C132.535736,132.769501 131.271057,132.390823 130.006393,132.012146 
	C130.006393,132.012146 129.991989,132.008331 129.878418,131.667084 
	C124.721962,129.552948 119.646980,127.862839 114.665085,125.932503 
	C113.744736,125.575882 113.200554,124.248444 112.482750,123.369095 
	C113.584587,123.113426 114.687813,122.639725 115.787987,122.646690 
	C118.207977,122.662010 120.626434,122.920181 123.045517,123.079231 
	C123.461967,123.106758 123.878426,123.134285 124.740204,123.544510 
	C128.482224,124.957649 131.778915,125.988083 135.075623,127.018517 
	C135.075623,127.018517 135.517670,127.108299 135.877563,127.358932 
	C136.466492,127.825172 136.736496,127.956467 137.047485,128.003464 
	C137.047485,128.003464 137.496185,128.109604 137.866547,128.361267 
	C138.474915,128.827454 138.752884,128.954788 139.070786,128.994919 
	C139.070786,128.994919 139.505081,129.090530 139.862778,129.334137 
	C140.445007,129.788071 140.708878,129.919205 141.012085,129.971161 
	C141.012085,129.971161 141.006943,129.990662 141.135254,130.204147 
	C141.472931,130.684509 141.738663,130.871124 142.060745,130.977493 
	C142.060745,130.977493 142.005188,130.997971 142.123688,131.286606 
	C143.180527,132.027084 144.118881,132.478928 145.057220,132.930756 
	C145.057220,132.930756 145.044693,132.994125 145.163818,133.179337 
	C145.491730,133.633881 145.753265,133.834396 146.067551,133.966095 
	C146.067551,133.966095 146.004684,133.988358 146.114258,134.186310 
	C146.390289,134.665909 146.596970,134.914047 146.843857,135.128677 
	C146.843857,135.128677 146.973770,135.480591 147.108521,135.897049 
	C147.498749,136.530228 147.754227,136.746948 148.009705,136.963669 
	C148.009705,136.963669 148.033936,136.972092 148.011566,137.409653 
	C148.018295,139.272675 148.047394,140.698120 148.076492,142.123581 
	C147.332687,144.779831 146.588898,147.436081 145.845093,150.092331 
	C145.228851,150.029739 144.612610,149.967133 143.996368,149.904541 
	C143.996368,147.937592 143.996368,145.970657 143.906540,143.343964 
	C143.607941,142.422562 143.399170,142.160889 143.190399,141.899231 
	C143.190399,141.899231 143.057831,141.502853 142.912476,141.068695 
	C142.501678,140.432770 142.236252,140.231003 141.970840,140.029236 
	C141.970840,140.029236 142.000000,140.000000 141.852875,139.798859 
	C141.430603,139.405411 141.155457,139.213104 140.880310,139.020782 
z"/>
<path fill="#30A2DA" opacity="1.000000" stroke="none" 
	d="
M79.745163,145.021271 
	C82.627739,145.168228 85.711693,145.827408 88.821419,145.988312 
	C97.248398,146.424301 100.429115,143.669235 102.460915,136.012497 
	C103.283516,134.721909 104.667892,133.498703 104.832176,132.129135 
	C105.572327,125.959122 102.953598,120.700188 99.296890,116.060524 
	C96.644318,112.694946 93.384560,109.807930 90.740730,107.065552 
	C87.663895,108.506805 85.157104,109.681038 82.293205,110.926926 
	C84.174431,108.747017 86.357254,106.434029 88.709358,104.308327 
	C89.073204,103.979500 90.479385,104.230568 90.953445,104.684006 
	C97.118477,110.580750 103.492638,116.247482 106.047646,124.954147 
	C108.521042,133.382721 105.693405,140.050873 99.264084,144.944901 
	C93.289368,149.492874 86.471268,149.004868 79.745163,145.021271 
z"/>
<path fill="#3493CD" opacity="1.000000" stroke="none" 
	d="
M116.538773,149.092880 
	C115.727196,149.880829 114.585091,151.077774 113.292007,151.272583 
	C100.895264,153.140350 88.519638,155.939865 75.924049,152.516617 
	C73.114586,151.753052 70.190720,151.410431 67.113358,150.562149 
	C76.558914,150.850113 86.216446,151.976471 95.860397,151.870255 
	C102.629242,151.795685 109.379593,150.041199 116.538773,149.092880 
z"/>
<path fill="#1F61AC" opacity="1.000000" stroke="none" 
	d="
M86.845642,74.959000 
	C90.808075,70.999489 92.018410,74.939445 93.480316,77.695885 
	C92.343658,79.058014 91.080513,79.969292 90.722733,81.153992 
	C90.271225,82.649048 90.769432,84.405891 90.480507,85.980537 
	C89.955238,88.843300 91.170197,89.964447 93.859802,89.969315 
	C92.160027,90.622414 90.460251,91.275513 88.354019,91.474686 
	C87.263405,86.020149 86.579262,81.019524 85.895119,76.018906 
	C85.895119,76.018906 85.905815,75.919350 86.132698,75.787247 
	C86.584442,75.466988 86.746460,75.234940 86.845642,74.959000 
z"/>
<path fill="#3493CD" opacity="1.000000" stroke="none" 
	d="
M68.187103,156.343323 
	C73.923447,156.553284 79.872681,157.716370 85.782082,157.540573 
	C93.529434,157.310120 101.263374,156.158325 108.966835,155.131012 
	C112.538712,154.654663 116.024963,153.536224 119.839783,152.860870 
	C114.433800,154.658524 108.815659,156.682434 103.025970,157.870071 
	C91.436752,160.247360 79.880684,158.641724 68.187103,156.343323 
z"/>
<path fill="#2F97D3" opacity="1.000000" stroke="none" 
	d="
M122.833160,122.738640 
	C120.626434,122.920181 118.207977,122.662010 115.787987,122.646690 
	C114.687813,122.639725 113.584587,123.113426 112.482750,123.369095 
	C113.200554,124.248444 113.744736,125.575882 114.665085,125.932503 
	C119.646980,127.862839 124.721962,129.552948 129.876511,131.659897 
	C124.495377,130.636093 118.828430,129.729263 113.592133,127.707214 
	C111.374313,126.850792 110.061256,123.651428 108.336975,121.516953 
	C108.652885,120.989555 108.968796,120.462166 109.284714,119.934769 
	C113.730080,120.755859 118.175446,121.576950 122.833160,122.738640 
z"/>
<path fill="#1887D2" opacity="1.000000" stroke="none" 
	d="
M93.993179,89.681694 
	C91.170197,89.964447 89.955238,88.843300 90.480507,85.980537 
	C90.769432,84.405891 90.271225,82.649048 90.722733,81.153992 
	C91.080513,79.969292 92.343658,79.058014 93.516220,78.038391 
	C96.474358,81.765213 97.548134,85.520416 93.993179,89.681694 
z"/>
<path fill="#173B84" opacity="1.000000" stroke="none" 
	d="
M85.580872,76.162827 
	C86.579262,81.019524 87.263405,86.020149 87.979080,91.418594 
	C81.036842,88.306107 80.272194,83.984085 85.580872,76.162827 
z"/>
<path fill="#30A2DA" opacity="1.000000" stroke="none" 
	d="
M75.645653,118.111046 
	C75.378471,120.488121 74.514145,122.995941 74.233009,125.567505 
	C73.633705,131.049286 73.342567,136.526276 78.073532,140.762115 
	C78.826927,141.436661 79.003365,142.755600 79.357086,144.133026 
	C72.070953,139.660355 69.921471,130.380035 73.915245,121.370659 
	C74.374580,120.334450 74.846642,119.303864 75.645653,118.111046 
z"/>
<path fill="#379CCC" opacity="1.000000" stroke="none" 
	d="
M85.929329,52.939659 
	C87.166046,51.650913 88.402756,50.362164 89.639465,49.073410 
	C91.089890,51.225208 93.247971,53.230129 93.736038,55.581665 
	C94.048996,57.089531 92.243248,59.558273 90.719345,60.720654 
	C89.875221,61.364525 87.656631,60.206451 86.083313,59.378639 
	C86.109032,58.896679 86.298882,58.718311 86.589394,58.845085 
	C88.433823,58.492428 90.355087,58.395081 91.402107,57.388424 
	C92.017548,56.796711 91.691551,53.929928 90.996376,53.554619 
	C89.747864,52.880589 87.902344,53.312405 86.212097,53.196457 
	C86.117920,53.110775 85.929329,52.939659 85.929329,52.939659 
z"/>
<path fill="#3487BB" opacity="1.000000" stroke="none" 
	d="
M89.979538,36.901848 
	C85.303307,34.991093 85.282967,33.486546 89.632317,29.179947 
	C91.672821,31.634436 95.465759,33.771076 89.979538,36.901848 
z"/>
<path fill="#2F97D3" opacity="1.000000" stroke="none" 
	d="
M134.911331,126.684143 
	C131.778915,125.988083 128.482224,124.957649 125.043251,123.622917 
	C128.182999,124.329002 131.465012,125.339378 134.911331,126.684143 
z"/>
<path fill="#3493CD" opacity="1.000000" stroke="none" 
	d="
M51.076088,141.605087 
	C50.071270,142.791016 49.042168,143.606995 47.982292,144.747803 
	C45.404217,141.031631 48.584354,139.234375 51.876789,137.300919 
	C51.601791,138.612335 51.326794,139.923737 51.076088,141.605087 
z"/>
<path fill="#3493CD" opacity="1.000000" stroke="none" 
	d="
M123.390869,152.029083 
	C124.735031,150.711533 126.429329,149.368332 128.489609,148.007187 
	C127.150719,149.327301 125.445862,150.665359 123.390869,152.029083 
z"/>
<path fill="#3493CD" opacity="1.000000" stroke="none" 
	d="
M64.059624,155.254578 
	C65.176491,155.080994 66.491074,155.237167 67.909683,155.700272 
	C66.761589,155.866241 65.509460,155.725281 64.059624,155.254578 
z"/>
<path fill="#3493CD" opacity="1.000000" stroke="none" 
	d="
M56.043617,152.300720 
	C57.493446,152.428589 59.114452,152.881760 60.872627,153.672180 
	C59.411465,153.548294 57.813129,153.087143 56.043617,152.300720 
z"/>
<path fill="#379CCC" opacity="1.000000" stroke="none" 
	d="
M86.014069,58.985825 
	C85.723473,57.136547 85.527847,55.198124 85.630768,53.099682 
	C85.929329,52.939659 86.117920,53.110775 86.136917,53.578911 
	C86.203575,55.604134 86.251228,57.161224 86.298874,58.718311 
	C86.298882,58.718311 86.109032,58.896679 86.014069,58.985825 
z"/>
<path fill="#30A2DA" opacity="1.000000" stroke="none" 
	d="
M79.696754,113.119492 
	C79.221542,114.296089 78.430481,115.574059 77.298019,116.917900 
	C77.764717,115.729469 78.572807,114.475166 79.696754,113.119492 
z"/>
<path fill="#2F97D3" opacity="1.000000" stroke="none" 
	d="
M130.133499,132.334213 
	C131.271057,132.390823 132.535736,132.769501 133.969666,133.444794 
	C132.846146,133.379684 131.553375,133.017975 130.133499,132.334213 
z"/>
<path fill="#3493CD" opacity="1.000000" stroke="none" 
	d="
M50.030830,148.350769 
	C50.953518,148.734772 51.981110,149.419601 53.080441,150.440277 
	C52.146702,150.067963 51.141220,149.359787 50.030830,148.350769 
z"/>
<path fill="#3493CD" opacity="1.000000" stroke="none" 
	d="
M58.961613,147.681824 
	C57.835091,147.527390 56.549957,147.064545 55.139122,146.270935 
	C56.276611,146.417923 57.539806,146.895676 58.961613,147.681824 
z"/>
<path fill="#2F97D3" opacity="1.000000" stroke="none" 
	d="
M144.951813,132.620087 
	C144.118881,132.478928 143.180527,132.027084 142.135971,131.259674 
	C142.968628,131.399200 143.907516,131.854324 144.951813,132.620087 
z"/>
<path fill="#3493CD" opacity="1.000000" stroke="none" 
	d="
M47.948906,145.358826 
	C48.585640,145.817902 49.256393,146.605438 49.938725,147.733444 
	C49.294510,147.278366 48.638714,146.482849 47.948906,145.358826 
z"/>
<path fill="#2F97D3" opacity="1.000000" stroke="none" 
	d="
M148.398132,141.929291 
	C148.047394,140.698120 148.018295,139.272675 148.015228,137.421936 
	C148.267456,138.576111 148.493622,140.155563 148.398132,141.929291 
z"/>
<path fill="#3493CD" opacity="1.000000" stroke="none" 
	d="
M65.932953,149.710144 
	C65.235992,149.880081 64.382286,149.725327 63.252354,149.392242 
	C63.909489,149.271103 64.842857,149.328262 65.932953,149.710144 
z"/>
<path fill="#3493CD" opacity="1.000000" stroke="none" 
	d="
M61.953148,148.726929 
	C61.536037,148.869812 60.970997,148.719711 60.170181,148.388702 
	C60.558014,148.283203 61.181618,148.358582 61.953148,148.726929 
z"/>
<path fill="#3493CD" opacity="1.000000" stroke="none" 
	d="
M54.989052,145.734299 
	C54.795673,145.790695 54.529289,145.585999 54.138050,145.159698 
	C54.314148,145.116470 54.615097,145.294846 54.989052,145.734299 
z"/>
<path fill="#2F97D3" opacity="1.000000" stroke="none" 
	d="
M141.978546,130.731110 
	C141.738663,130.871124 141.472931,130.684509 141.144852,130.202042 
	C141.316208,130.152542 141.606262,130.318634 141.978546,130.731110 
z"/>
<path fill="#3493CD" opacity="1.000000" stroke="none" 
	d="
M61.065407,154.248566 
	C61.295631,154.046722 61.563042,154.178772 61.944740,154.556015 
	C61.777626,154.652496 61.458813,154.579590 61.065407,154.248566 
z"/>
<path fill="#3493CD" opacity="1.000000" stroke="none" 
	d="
M122.102249,152.857758 
	C122.026184,152.545715 122.281288,152.337006 122.816986,152.107788 
	C122.831619,152.324081 122.610222,152.615341 122.102249,152.857758 
z"/>
<path fill="#173B84" opacity="1.000000" stroke="none" 
	d="
M86.629028,75.032669 
	C86.746460,75.234940 86.584442,75.466988 86.180313,75.771759 
	C85.996811,75.553268 86.133942,75.292587 86.629028,75.032669 
z"/>
<path fill="#30A2DA" opacity="1.000000" stroke="none" 
	d="
M80.774948,112.061127 
	C80.930946,112.318413 80.744812,112.585640 80.245018,112.898148 
	C80.189934,112.716331 80.357079,112.425545 80.774948,112.061127 
z"/>
<path fill="#3493CD" opacity="1.000000" stroke="none" 
	d="
M53.991737,151.260849 
	C54.183228,151.136459 54.483196,151.280960 54.960205,151.606842 
	C54.791569,151.702042 54.445889,151.615891 53.991737,151.260849 
z"/>
<path fill="#2F97D3" opacity="1.000000" stroke="none" 
	d="
M140.937241,129.718216 
	C140.708878,129.919205 140.445007,129.788071 140.072205,129.408859 
	C140.236755,129.315063 140.549576,129.390167 140.937241,129.718216 
z"/>
<path fill="#30A2DA" opacity="1.000000" stroke="none" 
	d="
M76.731537,117.020287 
	C76.791321,117.218613 76.588623,117.485268 76.162804,117.873352 
	C76.116142,117.692719 76.292610,117.390671 76.731537,117.020287 
z"/>
<path fill="#2F97D3" opacity="1.000000" stroke="none" 
	d="
M145.999420,133.706863 
	C145.753265,133.834396 145.491730,133.633881 145.158295,133.148468 
	C145.332855,133.104126 145.632080,133.275879 145.999420,133.706863 
z"/>
<path fill="#2F97D3" opacity="1.000000" stroke="none" 
	d="
M146.885651,134.846222 
	C146.596970,134.914047 146.390289,134.665909 146.133698,134.159241 
	C146.338211,134.144058 146.632812,134.353928 146.885651,134.846222 
z"/>
<path fill="#2F97D3" opacity="1.000000" stroke="none" 
	d="
M147.948425,136.706009 
	C147.754227,136.746948 147.498749,136.530228 147.138824,136.082153 
	C147.318649,136.049973 147.602905,136.249161 147.948425,136.706009 
z"/>
<path fill="#2F97D3" opacity="1.000000" stroke="none" 
	d="
M136.052429,135.264099 
	C136.284103,135.048370 136.557373,135.175629 136.937332,135.568665 
	C136.768951,135.669296 136.452301,135.593506 136.052429,135.264099 
z"/>
<path fill="#3493CD" opacity="1.000000" stroke="none" 
	d="
M53.992538,144.723175 
	C53.793827,144.783325 53.525440,144.580780 53.136276,144.153564 
	C53.317951,144.106094 53.620411,144.283279 53.992538,144.723175 
z"/>
<path fill="#3493CD" opacity="1.000000" stroke="none" 
	d="
M52.998695,143.721573 
	C52.802643,143.778320 52.535770,143.570251 52.141029,143.140182 
	C52.318062,143.097702 52.622971,143.277237 52.998695,143.721573 
z"/>
<path fill="#2F97D3" opacity="1.000000" stroke="none" 
	d="
M143.144012,142.182739 
	C143.399170,142.160889 143.607941,142.422562 143.893036,142.924622 
	C143.678772,142.932114 143.388199,142.699173 143.144012,142.182739 
z"/>
<path fill="#2F97D3" opacity="1.000000" stroke="none" 
	d="
M136.962463,127.751694 
	C136.736496,127.956467 136.466492,127.825172 136.090057,127.434563 
	C136.254227,127.339676 136.565826,127.419800 136.962463,127.751694 
z"/>
<path fill="#3493CD" opacity="1.000000" stroke="none" 
	d="
M52.005829,142.722076 
	C51.811741,142.775284 51.542053,142.563568 51.144165,142.125885 
	C51.320713,142.085663 51.625469,142.271408 52.005829,142.722076 
z"/>
<path fill="#2F97D3" opacity="1.000000" stroke="none" 
	d="
M142.047104,140.280716 
	C142.236252,140.231003 142.501678,140.432770 142.876709,140.862808 
	C142.698669,140.904785 142.411026,140.718491 142.047104,140.280716 
z"/>
<path fill="#2F97D3" opacity="1.000000" stroke="none" 
	d="
M140.972763,139.273956 
	C141.155457,139.213104 141.430603,139.405411 141.839188,139.814301 
	C141.670151,139.862961 141.367676,139.695038 140.972763,139.273956 
z"/>
<path fill="#2F97D3" opacity="1.000000" stroke="none" 
	d="
M138.020950,136.259415 
	C138.207504,136.203690 138.474152,136.399902 138.860703,136.816956 
	C138.687424,136.862305 138.394226,136.686829 138.020950,136.259415 
z"/>
<path fill="#2F97D3" opacity="1.000000" stroke="none" 
	d="
M139.030914,137.279388 
	C139.224609,137.232452 139.486740,137.446960 139.866943,137.889191 
	C139.689774,137.924881 139.394562,137.732849 139.030914,137.279388 
z"/>
<path fill="#2F97D3" opacity="1.000000" stroke="none" 
	d="
M138.976196,128.743195 
	C138.752884,128.954788 138.474915,128.827454 138.084442,128.436584 
	C138.248505,128.337341 138.565063,128.414413 138.976196,128.743195 
z"/>
<path fill="#1AAAF6" opacity="1.000000" stroke="none" 
	d="
M86.589386,58.845085 
	C86.251228,57.161224 86.203575,55.604134 86.231102,53.664589 
	C87.902344,53.312405 89.747864,52.880589 90.996376,53.554619 
	C91.691551,53.929928 92.017548,56.796711 91.402107,57.388424 
	C90.355087,58.395081 88.433823,58.492428 86.589386,58.845085 
z"/>
</svg>