<svg version="1.1" id="Layer_1" xmlns="http://www.w3.org/2000/svg" xmlns:xlink="http://www.w3.org/1999/xlink" x="0px" y="0px"
	 width="100%" viewBox="0 0 179 184" enable-background="new 0 0 179 184" xml:space="preserve">
<path fill="#F8F8F9" opacity="1.000000" stroke="none" 
	d="
M98.000000,185.000000 
	C65.333336,185.000000 33.166672,185.000000 1.000004,185.000000 
	C1.000003,123.666672 1.000003,62.333344 1.000001,1.000013 
	C60.666656,1.000008 120.333313,1.000008 179.999969,1.000004 
	C179.999985,62.333317 179.999985,123.666634 180.000000,184.999969 
	C152.833328,185.000000 125.666664,185.000000 98.000000,185.000000 
M86.322250,90.630180 
	C87.888847,90.707191 89.455437,90.784210 91.724930,90.863602 
	C97.378098,86.761612 97.695343,83.248421 92.700661,76.672043 
	C91.707344,75.612778 90.714020,74.553505 89.427277,73.181335 
	C87.820419,74.902443 86.406128,76.417282 84.328430,78.235374 
	C81.501587,84.333038 81.839081,86.735916 86.322250,90.630180 
M139.727249,129.705673 
	C139.561249,129.513458 139.351990,129.430649 138.732819,129.073425 
	C138.561691,129.028458 138.390579,128.983475 137.934479,128.553879 
	C137.679382,128.329636 137.382919,128.235092 136.613846,127.961815 
	C136.438690,127.938148 136.263550,127.914490 135.600021,127.392189 
	C127.574539,123.576927 119.107628,121.622871 109.711220,121.712181 
	C110.933685,124.058762 112.393692,126.526505 114.481400,127.299934 
	C120.529663,129.540649 126.830109,131.100662 133.517120,133.392014 
	C139.307770,136.649094 145.178940,139.843369 144.578751,148.051132 
	C151.351822,143.719498 148.917480,134.927719 139.727249,129.705673 
M12.373644,130.286697 
	C11.681301,130.704132 10.842120,130.987213 10.318666,131.559204 
	C2.568877,140.027618 2.743107,149.592514 11.072567,157.597931 
	C19.603619,165.797089 30.340328,169.961716 41.498585,172.943924 
	C68.619125,180.192261 96.062141,180.732315 123.625099,175.941620 
	C137.486969,173.532303 150.916626,169.673065 162.645447,161.464005 
	C167.611862,157.987976 171.860657,153.805481 173.609955,147.709091 
	C175.179611,142.238739 172.795532,135.877686 167.753189,133.095825 
	C170.454086,143.537796 164.413055,149.376236 156.897995,154.007187 
	C152.408798,156.773544 147.505844,159.123871 142.492142,160.741409 
	C114.011284,169.929977 84.978081,170.652115 55.688534,165.548660 
	C43.340145,163.397064 31.324930,160.085510 20.805483,152.885712 
	C11.144488,146.273438 9.346976,140.740509 12.964308,129.922043 
	C12.964308,129.922043 13.024487,130.070740 12.373644,130.286697 
M86.730026,106.336594 
	C81.064651,111.340347 75.960571,116.767120 73.631905,124.204216 
	C71.192741,131.994171 73.567337,140.006256 79.538795,144.354477 
	C85.387741,148.613495 92.861237,148.733612 98.672882,144.662018 
	C104.868607,140.321350 107.350136,132.696609 105.143120,124.763672 
	C102.844315,116.500771 96.993774,110.808647 90.850578,105.408791 
	C90.253357,104.883827 88.480408,105.696449 86.730026,106.336594 
M130.223465,140.637253 
	C129.957016,140.009277 129.690582,139.381302 129.424149,138.753311 
	C128.229813,144.390472 124.593315,146.491776 120.634651,147.790924 
	C100.100418,154.529907 79.475914,154.390503 58.949982,147.791946 
	C54.553928,146.378723 50.569405,143.959854 50.714291,137.987915 
	C46.914700,142.265152 46.800671,145.647720 50.708706,148.440872 
	C53.902664,150.723663 57.506714,152.705948 61.221878,153.938660 
	C76.877098,159.133163 92.938591,159.614136 108.915901,156.054565 
	C115.260124,154.641159 121.395859,151.697708 127.152611,148.576736 
	C129.064178,147.540390 129.495468,143.773621 130.223465,140.637253 
M93.404800,56.394791 
	C92.366348,54.073669 91.327896,51.752548 90.289444,49.431427 
	C89.483261,49.479862 88.677078,49.528301 87.870895,49.576736 
	C87.018791,52.307003 85.831345,54.999268 85.515076,57.790253 
	C85.417824,58.648487 88.010757,60.810123 88.831284,60.565052 
	C90.517281,60.061489 91.838272,58.335876 93.404800,56.394791 
M91.683586,35.113251 
	C91.253410,33.403385 90.823235,31.693520 90.393066,29.983654 
	C89.726219,29.975294 89.059372,29.966932 88.392525,29.958572 
	C87.991974,31.872725 87.591423,33.786877 87.190872,35.701027 
	C88.555359,35.722095 89.919853,35.743164 91.683586,35.113251 
z"/>
<path fill="#209EEE" opacity="1.000000" stroke="none" 
	d="
M13.017937,130.029236 
	C9.346976,140.740509 11.144488,146.273438 20.805483,152.885712 
	C31.324930,160.085510 43.340145,163.397064 55.688534,165.548660 
	C84.978081,170.652115 114.011284,169.929977 142.492142,160.741409 
	C147.505844,159.123871 152.408798,156.773544 156.897995,154.007187 
	C164.413055,149.376236 170.454086,143.537796 167.753189,133.095825 
	C172.795532,135.877686 175.179611,142.238739 173.609955,147.709091 
	C171.860657,153.805481 167.611862,157.987976 162.645447,161.464005 
	C150.916626,169.673065 137.486969,173.532303 123.625099,175.941620 
	C96.062141,180.732315 68.619125,180.192261 41.498585,172.943924 
	C30.340328,169.961716 19.603619,165.797089 11.072567,157.597931 
	C2.743107,149.592514 2.568877,140.027618 10.318666,131.559204 
	C10.842120,130.987213 11.681301,130.704132 12.697443,130.165833 
	C13.021243,130.044983 13.017937,130.029236 13.017937,130.029236 
z"/>
<path fill="#1AABF5" opacity="1.000000" stroke="none" 
	d="
M86.991623,106.112389 
	C88.480408,105.696449 90.253357,104.883827 90.850578,105.408791 
	C96.993774,110.808647 102.844315,116.500771 105.143120,124.763672 
	C107.350136,132.696609 104.868607,140.321350 98.672882,144.662018 
	C92.861237,148.733612 85.387741,148.613495 79.538795,144.354477 
	C73.567337,140.006256 71.192741,131.994171 73.631905,124.204216 
	C75.960571,116.767120 81.064651,111.340347 86.991623,106.112389 
z"/>
<path fill="#269FEC" opacity="1.000000" stroke="none" 
	d="
M130.413483,140.946198 
	C129.495468,143.773621 129.064178,147.540390 127.152611,148.576736 
	C121.395859,151.697708 115.260124,154.641159 108.915901,156.054565 
	C92.938591,159.614136 76.877098,159.133163 61.221878,153.938660 
	C57.506714,152.705948 53.902664,150.723663 50.708706,148.440872 
	C46.800671,145.647720 46.914700,142.265152 50.714291,137.987915 
	C50.569405,143.959854 54.553928,146.378723 58.949982,147.791946 
	C79.475914,154.390503 100.100418,154.529907 120.634651,147.790924 
	C124.593315,146.491776 128.229813,144.390472 129.424149,138.753311 
	C129.690582,139.381302 129.957016,140.009277 130.413483,140.946198 
z"/>
<path fill="#26A2ED" opacity="1.000000" stroke="none" 
	d="
M133.031586,132.927826 
	C126.830109,131.100662 120.529663,129.540649 114.481400,127.299934 
	C112.393692,126.526505 110.933685,124.058762 109.711220,121.712181 
	C119.107628,121.622871 127.574539,123.576927 135.650284,127.917847 
	C134.810898,129.938278 133.921234,131.433044 133.031586,132.927826 
z"/>
<path fill="#21ABF3" opacity="1.000000" stroke="none" 
	d="
M133.274353,133.159912 
	C133.921234,131.433044 134.810898,129.938278 135.894470,128.167175 
	C136.263550,127.914490 136.438690,127.938148 136.981293,128.293579 
	C137.604538,128.825455 137.894775,128.929840 138.219452,128.938507 
	C138.390579,128.983475 138.561691,129.028458 139.022324,129.387665 
	C139.479340,129.847687 139.668961,129.954086 139.880707,130.021088 
	C148.917480,134.927719 151.351822,143.719498 144.578751,148.051132 
	C145.178940,139.843369 139.307770,136.649094 133.274353,133.159912 
z"/>
<path fill="#1D67B6" opacity="1.000000" stroke="none" 
	d="
M91.022034,90.861221 
	C89.455437,90.784210 87.888847,90.707191 86.444611,90.072464 
	C86.041924,85.653877 85.516884,81.793007 84.991844,77.932129 
	C86.406128,76.417282 87.820419,74.902443 89.427277,73.181335 
	C90.714020,74.553505 91.707344,75.612778 92.763199,77.337036 
	C92.224510,82.288429 91.623268,86.574829 91.022034,90.861221 
z"/>
<path fill="#29ADF0" opacity="1.000000" stroke="none" 
	d="
M93.357147,56.754021 
	C91.838272,58.335876 90.517281,60.061489 88.831284,60.565052 
	C88.010757,60.810123 85.417824,58.648487 85.515076,57.790253 
	C85.831345,54.999268 87.018791,52.307003 87.870895,49.576736 
	C88.677078,49.528301 89.483261,49.479862 90.289444,49.431427 
	C91.327896,51.752548 92.366348,54.073669 93.357147,56.754021 
z"/>
<path fill="#2495DD" opacity="1.000000" stroke="none" 
	d="
M91.373474,90.862411 
	C91.623268,86.574829 92.224510,82.288429 92.889175,77.635208 
	C97.695343,83.248421 97.378098,86.761612 91.373474,90.862411 
z"/>
<path fill="#1B3C91" opacity="1.000000" stroke="none" 
	d="
M84.660141,78.083755 
	C85.516884,81.793007 86.041924,85.653877 86.281738,89.813217 
	C81.839081,86.735916 81.501587,84.333038 84.660141,78.083755 
z"/>
<path fill="#2892D3" opacity="1.000000" stroke="none" 
	d="
M91.483963,35.438740 
	C89.919853,35.743164 88.555359,35.722095 87.190872,35.701027 
	C87.591423,33.786877 87.991974,31.872725 88.392525,29.958572 
	C89.059372,29.966932 89.726219,29.975294 90.393066,29.983654 
	C90.823235,31.693520 91.253410,33.403385 91.483963,35.438740 
z"/>
<path fill="#26A2ED" opacity="1.000000" stroke="none" 
	d="
M138.076965,128.746185 
	C137.894775,128.929840 137.604538,128.825455 137.196930,128.447784 
	C137.382919,128.235092 137.679382,128.329636 138.076965,128.746185 
z"/>
<path fill="#209EEE" opacity="1.000000" stroke="none" 
	d="
M13.022865,130.057861 
	C13.024487,130.070740 12.964308,129.922043 12.991122,129.975647 
	C13.017937,130.029236 13.021243,130.044983 13.022865,130.057861 
z"/>
<path fill="#26A2ED" opacity="1.000000" stroke="none" 
	d="
M139.803986,129.863373 
	C139.668961,129.954086 139.479340,129.847687 139.205627,129.579590 
	C139.351990,129.430649 139.561249,129.513458 139.803986,129.863373 
z"/>
</svg>